# xmcd CD database file
#
# Track frame offsets:
#	182
#	13595
#	26577
#	41325
#	54562
#	70825
#	86882
#	100360
#	113807
#	126482
#	139682
#
# Disc length: 2044 seconds
#
# Revision: 0
# Processed by: cddbd v1.4PL0 Copyright (c) Steve Scherf et al.
# Submitted via: CDex 1.40Release
#
DISCID=9607fa0b
DTITLE=Brooks and Dunn - Boot Scootin'
DYEAR=1995
DGENRE=Country
TTITLE0=Brand New Man
TTITLE1=My Next Broken Heart
TTITLE2=Boot Scootin' Boogie
TTITLE3=Hard Working Man
TTITLE4=Rock My World
TTITLE5=Texas Women
TTITLE6=Little Miss Honky Tonk
TTITLE7=My Kind Of Crazy
TTITLE8=Whiskey Under The Bridge
TTITLE9=We'll Burn That Bridge
TTITLE10=Cool Drink Of Water
EXTD=YEAR: 1995 ID3G: 2
EXTT0=
EXTT1=
EXTT2=
EXTT3=
EXTT4=
EXTT5=
EXTT6=
EXTT7=
EXTT8=
EXTT9=
EXTT10=
PLAYORDER=
